<?xml version="1.0" encoding="UTF-8" standalone="no"?>
<!-- Created with Inkscape (http://www.inkscape.org/) -->

<svg
   version="1.1"
   id="svg2"
   width="507.80841"
   height="429.88953"
   viewBox="0 0 507.8084 429.88952"
   sodipodi:docname="Source File.ai"
   xmlns:inkscape="http://www.inkscape.org/namespaces/inkscape"
   xmlns:sodipodi="http://sodipodi.sourceforge.net/DTD/sodipodi-0.dtd"
   xmlns="http://www.w3.org/2000/svg"
   xmlns:svg="http://www.w3.org/2000/svg">
  <defs
     id="defs6">
    <clipPath
       clipPathUnits="userSpaceOnUse"
       id="clipPath18">
      <path
         d="M 0,2000 H 2000 V 0 H 0 Z"
         id="path16" />
    </clipPath>
  </defs>
  <sodipodi:namedview
     id="namedview4"
     pagecolor="#ffffff"
     bordercolor="#000000"
     borderopacity="0.25"
     inkscape:showpageshadow="2"
     inkscape:pageopacity="0.0"
     inkscape:pagecheckerboard="0"
     inkscape:deskcolor="#d1d1d1"
     showgrid="false" />
  <g
     id="g10"
     inkscape:groupmode="layer"
     inkscape:label="Page 1"
     transform="matrix(1.3333333,0,0,-1.3333333,-535.28218,1548.278)">
    <g
       id="g12"
       inkscape:export-filename="./clean.svg"
       inkscape:export-xdpi="200"
       inkscape:export-ydpi="200">
      <g
         id="g14"
         clip-path="url(#clipPath18)">
        <g
           id="g40"
           transform="translate(769.5721,940.524)">
          <path
             d="M 0,0 C -0.361,-0.141 -0.728,-0.273 -1.105,-0.377 L -9.41,-2.675 C -9.421,-2.687 -9.421,-2.687 -9.433,-2.687 L -59.09,-16.479 c -1.71,-0.473 -3.558,-0.358 -5.198,0.324 l -3.889,1.616 39.084,20.397 c 7.722,4.039 12.367,11.977 12.165,20.577 -0.013,0.574 -0.048,1.151 -0.105,1.731 l -0.762,7.792 -11.944,122.198 c -0.047,0.543 -0.127,1.086 -0.185,1.629 l 17.476,-6.422 c 10.8,-3.962 18.135,-14.358 18.251,-25.874 L 6.969,10.363 C 7.012,5.766 4.199,1.666 0,0 m 0.79,-17.521 -18.308,-52.372 c -1.188,-3.393 -2.994,-6.381 -5.246,-8.883 l 10e-4,0.003 c -0.395,-0.439 -0.806,-0.862 -1.228,-1.27 -0.034,-0.033 -0.067,-0.067 -0.102,-0.099 -0.851,-0.816 -1.755,-1.569 -2.702,-2.256 -0.042,-0.03 -0.083,-0.061 -0.125,-0.091 -0.947,-0.678 -1.938,-1.289 -2.965,-1.832 -0.05,-0.026 -0.1,-0.053 -0.15,-0.079 -1.027,-0.534 -2.089,-0.997 -3.18,-1.389 -0.056,-0.02 -0.113,-0.041 -0.17,-0.061 -1.091,-0.383 -2.209,-0.692 -3.349,-0.926 -0.061,-0.013 -0.123,-0.026 -0.185,-0.038 -1.139,-0.225 -2.298,-0.374 -3.471,-0.443 -0.067,-0.004 -0.133,-0.008 -0.2,-0.012 -1.169,-0.06 -2.35,-0.04 -3.538,0.062 -0.074,0.006 -0.149,0.013 -0.224,0.02 -1.179,0.111 -2.362,0.304 -3.545,0.582 -0.086,0.021 -0.173,0.041 -0.259,0.063 -0.588,0.144 -1.176,0.305 -1.763,0.492 l -64.465,20.549 c -10.431,3.315 -21.242,5.21 -32.135,5.603 l -71.835,2.645 c -19.013,1.605 -35.219,13.607 -42.288,31.349 l -17.556,44.029 10.198,-0.462 0.947,-4.724 c 1.883,-9.345 10.165,-16.125 19.695,-16.125 h 11.966 c 4.933,0 9.68,1.813 13.365,5.093 l 13.584,12.129 10.673,-21.693 c 3.061,-6.214 9.252,-10.072 16.183,-10.072 h 26.047 c 4.285,0 8.444,1.536 11.712,4.32 l 6.146,5.244 7.138,-10.292 c 3.338,-4.817 8.825,-7.693 14.693,-7.693 h 21.045 c 2.865,0 5.73,0.693 8.271,2.022 l 11.689,6.11 4.097,-1.708 -9.329,-2.586 c -4.436,-1.236 -7.809,-4.62 -9.021,-9.056 -0.304,-1.109 -0.457,-2.231 -0.468,-3.341 -0.031,-3.33 1.23,-6.558 3.621,-9.044 l 19.255,-20.018 c 1.098,-1.144 2.934,-1.19 4.078,-0.081 0.578,0.555 0.875,1.289 0.889,2.029 0.015,0.74 -0.254,1.485 -0.808,2.063 l -19.244,20.018 c -1.325,1.377 -2.027,3.163 -2.008,5.003 0.007,0.613 0.093,1.232 0.264,1.843 0.67,2.461 2.529,4.332 4.99,5.014 l 20.999,5.833 c 0.012,0 0.023,0 0.035,0.011 l 49.634,13.792 c 0.307,0.085 0.616,0.145 0.923,0.189 0.068,0.009 0.136,0.014 0.204,0.021 0.234,0.027 0.468,0.044 0.701,0.048 0.088,0.001 0.176,0 0.264,-0.002 0.223,-0.004 0.445,-0.02 0.665,-0.046 0.077,-0.008 0.154,-0.015 0.23,-0.026 0.597,-0.09 1.178,-0.253 1.732,-0.493 0.028,-0.013 0.055,-0.028 0.083,-0.04 0.249,-0.112 0.492,-0.239 0.728,-0.381 0.045,-0.027 0.09,-0.056 0.134,-0.084 0.521,-0.328 1.011,-0.725 1.451,-1.196 1.86,-1.986 2.426,-4.701 1.537,-7.265 m -325.967,148.891 78.881,61.866 c 7.97,6.25 18.216,8.571 28.104,6.342 6.559,-1.471 12.398,-4.827 16.913,-9.56 l -0.003,-0.001 c 1.1,-1.139 2.11,-2.366 3.038,-3.664 0.132,-0.186 0.259,-0.377 0.389,-0.566 0.304,-0.445 0.598,-0.898 0.881,-1.359 0.129,-0.21 0.26,-0.419 0.385,-0.632 0.352,-0.603 0.691,-1.217 1.009,-1.845 0.023,-0.047 0.05,-0.091 0.074,-0.138 l 5.845,-11.701 c 0.866,-1.733 1.339,-3.593 1.42,-5.533 l 4.366,-113.914 c 0.161,-4.285 -1.571,-8.373 -4.77,-11.226 l -37.229,-33.22 c -2.622,-2.333 -6.006,-3.627 -9.518,-3.627 h -11.966 c -6.792,0 -12.683,4.828 -14.023,11.482 l -11.609,57.777 c -0.04,0.201 -0.048,0.388 -0.036,0.56 0.04,0.516 0.276,0.893 0.441,1.1 0.231,0.278 0.727,0.728 1.547,0.728 h 15.178 l 2.068,-8.086 c 0.3,-1.177 0.457,-2.379 0.478,-3.579 0.06,-3.599 -1.114,-7.18 -3.366,-10.047 l -7.023,-8.929 c -0.369,-0.473 -0.568,-1.024 -0.607,-1.58 -0.066,-0.925 0.313,-1.864 1.092,-2.478 0.532,-0.416 1.167,-0.623 1.791,-0.623 0.854,0 1.698,0.381 2.264,1.108 l 7.023,8.918 c 3.084,3.924 4.68,8.823 4.593,13.742 -0.028,1.64 -0.244,3.283 -0.655,4.892 l -2.471,9.703 c -0.012,0.393 -0.116,0.762 -0.278,1.109 l -11.989,46.977 c -0.393,1.548 -1.964,2.484 -3.512,2.091 -1.344,-0.344 -2.229,-1.59 -2.165,-2.933 0.008,-0.192 0.037,-0.387 0.086,-0.581 l 11.203,-43.925 h -13.71 c -2.333,0 -4.528,-1.04 -6.006,-2.842 -1.118,-1.361 -1.729,-3.027 -1.769,-4.74 -0.014,-0.571 0.036,-1.148 0.152,-1.72 l 9.494,-47.217 -13.26,0.612 h -0.092 l -39.366,1.814 c -7.981,0.392 -15.051,5.452 -18.008,12.879 l -14.635,36.663 c -0.952,2.395 -1.434,4.902 -1.459,7.398 -0.041,4.16 1.187,8.29 3.619,11.819 l 20.041,29.074 c 0.468,0.68 0.963,1.337 1.476,1.98 0.157,0.196 0.326,0.383 0.487,0.576 1.549,1.854 3.276,3.552 5.187,5.056 m 161.678,79.643 c 8.479,3.731 17.846,3.824 26.394,0.243 6.353,-2.668 11.574,-7.081 15.178,-12.729 0.011,-0.012 0.011,-0.023 0.023,-0.035 1.109,-1.741 2.059,-3.599 2.845,-5.563 l -0.003,-0.001 c 0.08,-0.17 0.147,-0.342 0.213,-0.517 0.02,-0.053 0.044,-0.103 0.064,-0.156 3.823,-10.13 6.295,-20.722 7.346,-31.488 L -99.518,38.87 c 0.049,-0.497 0.067,-0.994 0.055,-1.487 -0.084,-3.459 -1.637,-6.759 -4.295,-9.033 l -43.824,-37.367 c -2.217,-1.894 -5.036,-2.934 -7.958,-2.934 h -26.047 c -4.713,0 -8.929,2.622 -10.997,6.85 l -11.377,23.123 19.162,17.106 c 4.482,3.996 6.931,9.749 6.7,15.755 v 10e-4 c 0,10e-4 0,0.002 0,0.002 l -4.378,113.915 c -0.104,2.772 -0.785,5.429 -2.021,7.901 l -5.845,11.701 c -0.025,0.051 -0.055,0.099 -0.081,0.149 -0.299,0.592 -0.614,1.172 -0.941,1.745 -0.117,0.206 -0.238,0.409 -0.359,0.613 -0.276,0.463 -0.56,0.919 -0.853,1.369 -0.106,0.163 -0.209,0.329 -0.318,0.49 -0.402,0.598 -0.82,1.184 -1.252,1.756 -0.067,0.088 -0.137,0.174 -0.205,0.262 -0.422,0.548 -0.858,1.083 -1.306,1.607 -0.023,0.027 -0.044,0.056 -0.068,0.083 l -0.002,-0.001 c -0.916,1.063 -1.879,2.081 -2.897,3.036 z m 78.558,1.282 c 7.704,3.397 16.229,3.477 24.003,0.22 7.773,-3.257 13.688,-9.402 16.668,-17.28 4.574,-12.106 7.531,-24.765 8.778,-37.644 L -22.774,27.597 c 0.042,-0.43 0.067,-0.859 0.077,-1.286 0.141,-6.4 -3.315,-12.322 -9.075,-15.322 l -57.431,-29.997 c -1.721,-0.89 -3.662,-1.363 -5.603,-1.363 h -21.045 c -3.974,0 -7.693,1.94 -9.946,5.209 l -7.46,10.764 33.242,28.356 c 3.922,3.346 6.199,8.196 6.327,13.288 0.018,0.728 -0.007,1.46 -0.078,2.193 l -11.921,121.885 c -1.097,11.274 -3.696,22.374 -7.692,32.967 -0.127,0.323 -0.243,0.646 -0.382,0.97 l -0.018,-0.008 c -0.503,1.231 -1.052,2.433 -1.656,3.586 z M 12.745,10.42 11.578,127.547 c -0.138,13.895 -8.998,26.451 -22.039,31.245 l -20.306,7.462 c -1.606,10.58 -4.309,20.988 -8.098,31.014 -3.546,9.391 -10.592,16.691 -19.833,20.572 -9.252,3.881 -19.405,3.789 -28.576,-0.266 l -31.269,-13.791 c -4.135,5.602 -9.702,10.014 -16.333,12.798 -10.014,4.204 -21.011,4.1 -30.956,-0.289 l -37.899,-16.726 c -3.962,2.634 -8.42,4.575 -13.202,5.649 -11.586,2.599 -23.587,-0.104 -32.932,-7.439 l -78.881,-61.867 c -3.211,-2.518 -6.018,-5.509 -8.34,-8.871 l -20.029,-29.073 c -1.908,-2.767 -3.233,-5.819 -3.967,-8.989 l -2.894,-4.199 c -4.436,-6.446 -5.371,-14.67 -2.472,-21.924 l 14.623,-36.674 c 3.396,-8.502 11.424,-14.242 20.561,-14.693 l 39.481,-1.813 19.221,-48.202 c 7.438,-18.655 24.776,-31.5 44.794,-33.163 l 71.904,-2.645 c 10.65,-0.393 21.208,-2.241 31.361,-5.475 l 64.466,-20.549 c 12.151,-3.875 25.007,0.716 32.132,10.552 7.158,3.547 12.965,9.815 15.839,18.01 l 18.308,52.372 c 1.594,4.562 0.531,9.587 -2.773,13.11 -0.358,0.381 -0.727,0.716 -1.12,1.051 6.272,2.588 10.465,8.767 10.396,15.686"
             style="fill:#fd6805;fill-opacity:1;fill-rule:nonzero;stroke:none"
             id="path42" />
        </g>
        <g
           id="g44"
           transform="translate(576.6186,955.4725)">
          <path
             d="m 0,0 c 0.566,-0.647 1.363,-0.97 2.16,-0.97 0.682,0 1.363,0.242 1.917,0.739 l 15.744,14.046 c 6.503,5.798 9.98,14.127 9.53,22.824 l -4.713,90.952 c -0.081,1.594 -1.432,2.807 -3.026,2.738 -1.594,-0.081 -2.819,-1.444 -2.738,-3.038 L 23.587,36.339 C 23.945,29.397 21.173,22.755 15.975,18.123 L 0.231,4.077 C -0.959,3.015 -1.063,1.19 0,0"
             style="fill:#fd6805;fill-opacity:1;fill-rule:nonzero;stroke:none"
             id="path46" />
        </g>
        <g
           id="g48"
           transform="translate(686.3521,978.0199)">
          <path
             d="M 0,0 C 0.647,-6.665 -1.998,-13.237 -7.092,-17.58 L -37.24,-43.293 c -1.213,-1.04 -1.351,-2.853 -0.312,-4.066 0.566,-0.67 1.375,-1.016 2.195,-1.016 0.658,0 1.328,0.219 1.871,0.693 L -3.35,-21.97 c 6.538,5.567 9.934,13.988 9.102,22.524 l -8.386,85.789 c -0.15,1.594 -1.559,2.737 -3.153,2.599 -1.582,-0.162 -2.749,-1.571 -2.587,-3.153 z"
             style="fill:#fd6805;fill-opacity:1;fill-rule:nonzero;stroke:none"
             id="path50" />
        </g>
      </g>
    </g>
  </g>
</svg>
