<?xml version="1.0" encoding="UTF-8" standalone="no"?>
<svg
   xmlns:dc="http://purl.org/dc/elements/1.1/"
   xmlns:cc="http://creativecommons.org/ns#"
   xmlns:rdf="http://www.w3.org/1999/02/22-rdf-syntax-ns#"
   xmlns:svg="http://www.w3.org/2000/svg"
   xmlns="http://www.w3.org/2000/svg"
   xmlns:sodipodi="http://sodipodi.sourceforge.net/DTD/sodipodi-0.dtd"
   xmlns:inkscape="http://www.inkscape.org/namespaces/inkscape"
   id="Layer_1"
   data-name="Layer 1"
   width="1500"
   height="1500"
   viewBox="0 0 1114.2189 1455.39"
   version="1.1"
   sodipodi:docname="C only.svg"
   inkscape:version="0.92.4 (5da689c313, 2019-01-14)">
  <metadata
     id="metadata18">
    <rdf:RDF>
      <cc:Work
         rdf:about="">
        <dc:format>image/svg+xml</dc:format>
        <dc:type
           rdf:resource="http://purl.org/dc/dcmitype/StillImage" />
        <dc:title></dc:title>
      </cc:Work>
    </rdf:RDF>
  </metadata>
  <sodipodi:namedview
     pagecolor="#ffffff"
     bordercolor="#666666"
     borderopacity="1"
     objecttolerance="10"
     gridtolerance="10"
     guidetolerance="10"
     inkscape:pageopacity="0"
     inkscape:pageshadow="2"
     inkscape:window-width="1920"
     inkscape:window-height="1017"
     id="namedview16"
     showgrid="false"
     inkscape:zoom="0.42011368"
     inkscape:cx="1454.7206"
     inkscape:cy="654.53847"
     inkscape:window-x="-8"
     inkscape:window-y="-8"
     inkscape:window-maximized="1"
     inkscape:current-layer="Layer_1"
     fit-margin-top="0"
     fit-margin-left="0"
     fit-margin-right="0"
     fit-margin-bottom="0" />
  <defs
     id="defs9">
    <style
       id="style2">.cls-1{fill-rule:evenodd;fill:url(#New_Gradient_Swatch_8);}.cls-2{font-size:765.35px;fill:#46b6b5;font-family:Calibri;}</style>
    <linearGradient
       id="New_Gradient_Swatch_8"
       x1="989.64001"
       y1="200.81"
       x2="316.39999"
       y2="1366.89"
       gradientUnits="userSpaceOnUse"
       gradientTransform="translate(-0.00118605)">
      <stop
         offset="0"
         stop-color="#46b6b5"
         id="stop4" />
      <stop
         offset="1"
         stop-color="#5f92c4"
         id="stop6" />
    </linearGradient>
  </defs>
  <path
     class="cls-1"
     d="m 351.30881,474.78 -138.51,-138.51 a 642.23,642.23 0 0 1 188.48,-117.88 433.31,433.31 0 0 0 185.34,-143.9 l 55.21,-74.49 55.17,74.47 a 433.28,433.28 0 0 0 185.33,143.9 c 63.37,25.63 133.15999,65.75 189.45999,111.13 a 533.68,533.68 0 0 1 42.4,37.85 866.59,866.59 0 0 1 -118.54999,38.3 c -58,14 -124.42,22.1 -167.2,2.43 -154.98,-71.26 -342.44,-49.02 -477.13,66.7 z m -43.51,42.82 -138.42,-138.42 a 641.7,641.7 0 0 0 -7.61,860.35 l 138.5,-138.53 c -142.15,-168.55 -139.64,-417.67 7.53,-583.4 z m 686.6,686.6 c -47,-12.49 -101.49,-16.06 -151,7.82 -162.54,78.44 -361.29,58.91 -500.74,-67.09 l -138.25,138.28 c 114.59,106.79 268.41,172.17 437.42,172.18 160.74,0 322.94,-66.35 438.38999,-165.37 q 17.74,-15.23 34,-31.44 c 0,0 -52.22,-36.41 -119.81999,-54.38 z"
     id="path11"
     inkscape:connector-curvature="0"
     style="fill:url(#New_Gradient_Swatch_8);fill-rule:evenodd" />
</svg>
